<mxfile host="app.diagrams.net" agent="Mozilla/5.0 (Macintosh; Intel Mac OS X 10_15_7) AppleWebKit/605.1.15 (KHTML, like Gecko) Version/18.1 Safari/605.1.15" version="24.8.4">
  <diagram name="Seite-1" id="N-1mJAtGzH2dnf0SG0BH">
    <mxGraphModel dx="1434" dy="827" grid="1" gridSize="10" guides="1" tooltips="1" connect="1" arrows="1" fold="1" page="1" pageScale="1" pageWidth="827" pageHeight="1169" math="0" shadow="0">
      <root>
        <mxCell id="0" />
        <mxCell id="1" parent="0" />
        <mxCell id="rgswjQ2tkkSFu81HH5ei-1" value="&amp;lt;&amp;lt;interface&amp;gt;&amp;gt;&lt;div&gt;CalculateBill&lt;/div&gt;" style="swimlane;fontStyle=1;align=center;verticalAlign=top;childLayout=stackLayout;horizontal=1;startSize=50;horizontalStack=0;resizeParent=1;resizeParentMax=0;resizeLast=0;collapsible=1;marginBottom=0;whiteSpace=wrap;html=1;" vertex="1" parent="1">
          <mxGeometry x="80" y="100" width="160" height="106" as="geometry" />
        </mxCell>
        <mxCell id="rgswjQ2tkkSFu81HH5ei-3" value="" style="line;strokeWidth=1;fillColor=none;align=left;verticalAlign=middle;spacingTop=-1;spacingLeft=3;spacingRight=3;rotatable=0;labelPosition=right;points=[];portConstraint=eastwest;strokeColor=inherit;" vertex="1" parent="rgswjQ2tkkSFu81HH5ei-1">
          <mxGeometry y="50" width="160" height="30" as="geometry" />
        </mxCell>
        <mxCell id="rgswjQ2tkkSFu81HH5ei-4" value="+&lt;i&gt;calculate : double&lt;/i&gt;" style="text;strokeColor=none;fillColor=none;align=left;verticalAlign=top;spacingLeft=4;spacingRight=4;overflow=hidden;rotatable=0;points=[[0,0.5],[1,0.5]];portConstraint=eastwest;whiteSpace=wrap;html=1;" vertex="1" parent="rgswjQ2tkkSFu81HH5ei-1">
          <mxGeometry y="80" width="160" height="26" as="geometry" />
        </mxCell>
        <mxCell id="rgswjQ2tkkSFu81HH5ei-10" value="&lt;i&gt;Transaction&lt;/i&gt;" style="swimlane;fontStyle=1;align=center;verticalAlign=top;childLayout=stackLayout;horizontal=1;startSize=26;horizontalStack=0;resizeParent=1;resizeParentMax=0;resizeLast=0;collapsible=1;marginBottom=0;whiteSpace=wrap;html=1;" vertex="1" parent="1">
          <mxGeometry x="460" y="80" width="480" height="350" as="geometry" />
        </mxCell>
        <mxCell id="rgswjQ2tkkSFu81HH5ei-11" value="-amount : double&lt;div&gt;-date : String&lt;/div&gt;&lt;div&gt;-description : String&lt;span style=&quot;white-space: pre;&quot;&gt;&#x9;&lt;/span&gt;&lt;/div&gt;" style="text;strokeColor=none;fillColor=none;align=left;verticalAlign=top;spacingLeft=4;spacingRight=4;overflow=hidden;rotatable=0;points=[[0,0.5],[1,0.5]];portConstraint=eastwest;whiteSpace=wrap;html=1;" vertex="1" parent="rgswjQ2tkkSFu81HH5ei-10">
          <mxGeometry y="26" width="480" height="124" as="geometry" />
        </mxCell>
        <mxCell id="rgswjQ2tkkSFu81HH5ei-12" value="" style="line;strokeWidth=1;fillColor=none;align=left;verticalAlign=middle;spacingTop=-1;spacingLeft=3;spacingRight=3;rotatable=0;labelPosition=right;points=[];portConstraint=eastwest;strokeColor=inherit;" vertex="1" parent="rgswjQ2tkkSFu81HH5ei-10">
          <mxGeometry y="150" width="480" height="8" as="geometry" />
        </mxCell>
        <mxCell id="rgswjQ2tkkSFu81HH5ei-13" value="+Transaction(date : String, amount : double, description : String)&lt;div&gt;+Transaction(other : Transaction)&lt;/div&gt;&lt;div&gt;+getDate() : double&lt;/div&gt;&lt;div&gt;+setDate(val : String) : void&lt;/div&gt;&lt;div&gt;+getAmount() : double&lt;/div&gt;&lt;div&gt;+setAmount(val : double) : void&lt;/div&gt;&lt;div&gt;+getDescription() : String&lt;/div&gt;&lt;div&gt;+setDescription(val : String) : void&lt;/div&gt;&lt;div&gt;+toString() : String&lt;/div&gt;&lt;div&gt;+equals(obj : Object) : boolean&lt;/div&gt;&lt;div&gt;+calculate() : double&lt;/div&gt;&lt;div&gt;&lt;br&gt;&lt;/div&gt;" style="text;strokeColor=none;fillColor=none;align=left;verticalAlign=top;spacingLeft=4;spacingRight=4;overflow=hidden;rotatable=0;points=[[0,0.5],[1,0.5]];portConstraint=eastwest;whiteSpace=wrap;html=1;" vertex="1" parent="rgswjQ2tkkSFu81HH5ei-10">
          <mxGeometry y="158" width="480" height="192" as="geometry" />
        </mxCell>
        <mxCell id="rgswjQ2tkkSFu81HH5ei-14" value="" style="endArrow=block;dashed=1;endFill=0;endSize=12;html=1;rounded=0;exitX=0;exitY=0.01;exitDx=0;exitDy=0;exitPerimeter=0;entryX=1;entryY=0.5;entryDx=0;entryDy=0;" edge="1" parent="1" source="rgswjQ2tkkSFu81HH5ei-13" target="rgswjQ2tkkSFu81HH5ei-1">
          <mxGeometry width="160" relative="1" as="geometry">
            <mxPoint x="630" y="430" as="sourcePoint" />
            <mxPoint x="790" y="430" as="targetPoint" />
          </mxGeometry>
        </mxCell>
        <mxCell id="rgswjQ2tkkSFu81HH5ei-15" value="Transfer" style="swimlane;fontStyle=1;align=center;verticalAlign=top;childLayout=stackLayout;horizontal=1;startSize=26;horizontalStack=0;resizeParent=1;resizeParentMax=0;resizeLast=0;collapsible=1;marginBottom=0;whiteSpace=wrap;html=1;" vertex="1" parent="1">
          <mxGeometry x="250" y="530" width="360" height="270" as="geometry" />
        </mxCell>
        <mxCell id="rgswjQ2tkkSFu81HH5ei-16" value="-sender : String&lt;div&gt;-recipient : String&lt;/div&gt;" style="text;strokeColor=none;fillColor=none;align=left;verticalAlign=top;spacingLeft=4;spacingRight=4;overflow=hidden;rotatable=0;points=[[0,0.5],[1,0.5]];portConstraint=eastwest;whiteSpace=wrap;html=1;" vertex="1" parent="rgswjQ2tkkSFu81HH5ei-15">
          <mxGeometry y="26" width="360" height="64" as="geometry" />
        </mxCell>
        <mxCell id="rgswjQ2tkkSFu81HH5ei-17" value="" style="line;strokeWidth=1;fillColor=none;align=left;verticalAlign=middle;spacingTop=-1;spacingLeft=3;spacingRight=3;rotatable=0;labelPosition=right;points=[];portConstraint=eastwest;strokeColor=inherit;" vertex="1" parent="rgswjQ2tkkSFu81HH5ei-15">
          <mxGeometry y="90" width="360" height="8" as="geometry" />
        </mxCell>
        <mxCell id="rgswjQ2tkkSFu81HH5ei-18" value="+Transfer(date : String, amount : double, description : String, sender : String, recipient : String)&lt;div&gt;+Transfer(other : Transfer)&lt;/div&gt;&lt;div&gt;+getSender() : String&lt;/div&gt;&lt;div&gt;+setSender(val : String) : void&lt;/div&gt;&lt;div&gt;+getRecipient() : String&lt;/div&gt;&lt;div&gt;+setRecipient() : String&lt;/div&gt;&lt;div&gt;+setAmount(val : double) : void&lt;/div&gt;&lt;div&gt;+toString() : String&lt;/div&gt;&lt;div&gt;+getAmount() : double&lt;/div&gt;&lt;div&gt;+equals(obj : Object) : boolean&amp;nbsp;&lt;/div&gt;" style="text;strokeColor=none;fillColor=none;align=left;verticalAlign=top;spacingLeft=4;spacingRight=4;overflow=hidden;rotatable=0;points=[[0,0.5],[1,0.5]];portConstraint=eastwest;whiteSpace=wrap;html=1;" vertex="1" parent="rgswjQ2tkkSFu81HH5ei-15">
          <mxGeometry y="98" width="360" height="172" as="geometry" />
        </mxCell>
        <mxCell id="rgswjQ2tkkSFu81HH5ei-19" value="Payment" style="swimlane;fontStyle=1;align=center;verticalAlign=top;childLayout=stackLayout;horizontal=1;startSize=26;horizontalStack=0;resizeParent=1;resizeParentMax=0;resizeLast=0;collapsible=1;marginBottom=0;whiteSpace=wrap;html=1;" vertex="1" parent="1">
          <mxGeometry x="910" y="520" width="453" height="300" as="geometry" />
        </mxCell>
        <mxCell id="rgswjQ2tkkSFu81HH5ei-20" value="-incomingInterest : double&lt;div&gt;-outgoingInterest : double&lt;/div&gt;" style="text;strokeColor=none;fillColor=none;align=left;verticalAlign=top;spacingLeft=4;spacingRight=4;overflow=hidden;rotatable=0;points=[[0,0.5],[1,0.5]];portConstraint=eastwest;whiteSpace=wrap;html=1;" vertex="1" parent="rgswjQ2tkkSFu81HH5ei-19">
          <mxGeometry y="26" width="453" height="84" as="geometry" />
        </mxCell>
        <mxCell id="rgswjQ2tkkSFu81HH5ei-21" value="" style="line;strokeWidth=1;fillColor=none;align=left;verticalAlign=middle;spacingTop=-1;spacingLeft=3;spacingRight=3;rotatable=0;labelPosition=right;points=[];portConstraint=eastwest;strokeColor=inherit;" vertex="1" parent="rgswjQ2tkkSFu81HH5ei-19">
          <mxGeometry y="110" width="453" height="8" as="geometry" />
        </mxCell>
        <mxCell id="rgswjQ2tkkSFu81HH5ei-22" value="+Payment(date : String, amount : double, description : String, incomingInterest : double, outgoingInterest : double)&lt;div&gt;+Payment(other : Payment)&lt;/div&gt;&lt;div&gt;+getIncomingInterest() : double&lt;/div&gt;&lt;div&gt;+setIncomingInterest(val : double) : void&lt;/div&gt;&lt;div&gt;+getOutgoingInterest() : double&lt;/div&gt;&lt;div&gt;+setOutgoingInterest(val : double) : void&lt;/div&gt;&lt;div&gt;+toString() : String&lt;/div&gt;&lt;div&gt;+calculate() : double&lt;/div&gt;&lt;div&gt;+getAmount() : double&lt;/div&gt;&lt;div&gt;+equals(obj : Object) : boolean&lt;/div&gt;" style="text;strokeColor=none;fillColor=none;align=left;verticalAlign=top;spacingLeft=4;spacingRight=4;overflow=hidden;rotatable=0;points=[[0,0.5],[1,0.5]];portConstraint=eastwest;whiteSpace=wrap;html=1;" vertex="1" parent="rgswjQ2tkkSFu81HH5ei-19">
          <mxGeometry y="118" width="453" height="182" as="geometry" />
        </mxCell>
        <mxCell id="rgswjQ2tkkSFu81HH5ei-23" value="Extends" style="endArrow=block;endSize=16;endFill=0;html=1;rounded=0;exitX=0.5;exitY=0;exitDx=0;exitDy=0;entryX=0.46;entryY=1.016;entryDx=0;entryDy=0;entryPerimeter=0;" edge="1" parent="1" source="rgswjQ2tkkSFu81HH5ei-15" target="rgswjQ2tkkSFu81HH5ei-13">
          <mxGeometry width="160" relative="1" as="geometry">
            <mxPoint x="630" y="430" as="sourcePoint" />
            <mxPoint x="790" y="430" as="targetPoint" />
          </mxGeometry>
        </mxCell>
        <mxCell id="rgswjQ2tkkSFu81HH5ei-24" value="Extends" style="endArrow=block;endSize=16;endFill=0;html=1;rounded=0;exitX=0.5;exitY=0;exitDx=0;exitDy=0;entryX=0.483;entryY=1.01;entryDx=0;entryDy=0;entryPerimeter=0;" edge="1" parent="1" source="rgswjQ2tkkSFu81HH5ei-19" target="rgswjQ2tkkSFu81HH5ei-13">
          <mxGeometry width="160" relative="1" as="geometry">
            <mxPoint x="630" y="430" as="sourcePoint" />
            <mxPoint x="790" y="430" as="targetPoint" />
          </mxGeometry>
        </mxCell>
        <mxCell id="rgswjQ2tkkSFu81HH5ei-25" value="&amp;lt;&amp;lt;interface&amp;gt;&amp;gt;&lt;div&gt;Bank&lt;/div&gt;" style="swimlane;fontStyle=1;align=center;verticalAlign=top;childLayout=stackLayout;horizontal=1;startSize=50;horizontalStack=0;resizeParent=1;resizeParentMax=0;resizeLast=0;collapsible=1;marginBottom=0;whiteSpace=wrap;html=1;" vertex="1" parent="1">
          <mxGeometry x="1750" y="70" width="600" height="260" as="geometry" />
        </mxCell>
        <mxCell id="rgswjQ2tkkSFu81HH5ei-26" value="" style="line;strokeWidth=1;fillColor=none;align=left;verticalAlign=middle;spacingTop=-1;spacingLeft=3;spacingRight=3;rotatable=0;labelPosition=right;points=[];portConstraint=eastwest;strokeColor=inherit;" vertex="1" parent="rgswjQ2tkkSFu81HH5ei-25">
          <mxGeometry y="50" width="600" height="30" as="geometry" />
        </mxCell>
        <mxCell id="rgswjQ2tkkSFu81HH5ei-27" value="&lt;i&gt;+createAccount(account : String) : void&lt;/i&gt;&lt;div&gt;&lt;i&gt;+createAccount(account : String, transactions : List&amp;lt;Transaction&amp;gt;) : void&lt;/i&gt;&lt;/div&gt;&lt;div&gt;&lt;i&gt;+addTransaction(account : String, transaction : Transaction) : void&lt;/i&gt;&lt;/div&gt;&lt;div&gt;&lt;i&gt;+removeTransaction(account : String, transaction : Transaction) : void&lt;/i&gt;&lt;/div&gt;&lt;div&gt;&lt;i&gt;+containsTransaction(account : String, transaction : Transaction) : boolean&lt;/i&gt;&lt;/div&gt;&lt;div&gt;&lt;i&gt;+getAccountBalance(account : String) : double&lt;/i&gt;&lt;/div&gt;&lt;div&gt;&lt;i&gt;+getTransactions(account : String) : List&amp;lt;Transaction&amp;gt;&lt;/i&gt;&lt;/div&gt;&lt;div&gt;&lt;i&gt;+getTransactionsSorted(account : String, asc : boolean) :&amp;nbsp;&lt;/i&gt;&lt;i data-darkreader-inline-color=&quot;&quot; style=&quot;color: rgb(0, 0, 0); --darkreader-inline-color: #e8e6e3;&quot;&gt;List&amp;lt;Transaction&amp;gt;&lt;/i&gt;&lt;/div&gt;&lt;div&gt;&lt;i&gt;+getTransactionsByType(account : String, positive : boolean) :&amp;nbsp;&lt;/i&gt;&lt;i data-darkreader-inline-color=&quot;&quot; style=&quot;color: rgb(0, 0, 0); --darkreader-inline-color: #e8e6e3;&quot;&gt;List&amp;lt;Transaction&amp;gt;&lt;/i&gt;&lt;/div&gt;" style="text;strokeColor=none;fillColor=none;align=left;verticalAlign=top;spacingLeft=4;spacingRight=4;overflow=hidden;rotatable=0;points=[[0,0.5],[1,0.5]];portConstraint=eastwest;whiteSpace=wrap;html=1;" vertex="1" parent="rgswjQ2tkkSFu81HH5ei-25">
          <mxGeometry y="80" width="600" height="180" as="geometry" />
        </mxCell>
        <mxCell id="rgswjQ2tkkSFu81HH5ei-28" value="PrivateBank" style="swimlane;fontStyle=1;align=center;verticalAlign=top;childLayout=stackLayout;horizontal=1;startSize=26;horizontalStack=0;resizeParent=1;resizeParentMax=0;resizeLast=0;collapsible=1;marginBottom=0;whiteSpace=wrap;html=1;" vertex="1" parent="1">
          <mxGeometry x="1480" y="470" width="700" height="610" as="geometry" />
        </mxCell>
        <mxCell id="rgswjQ2tkkSFu81HH5ei-29" value="#name : String&lt;div&gt;#incomingInterest : double&lt;/div&gt;&lt;div&gt;#outgoingInterest : double&lt;/div&gt;&lt;div&gt;#accountsToTransactions : Map&amp;lt;String, List&amp;lt;Transaction&amp;gt;&amp;gt;&lt;/div&gt;&lt;div&gt;&lt;br&gt;&lt;/div&gt;" style="text;strokeColor=none;fillColor=none;align=left;verticalAlign=top;spacingLeft=4;spacingRight=4;overflow=hidden;rotatable=0;points=[[0,0.5],[1,0.5]];portConstraint=eastwest;whiteSpace=wrap;html=1;" vertex="1" parent="rgswjQ2tkkSFu81HH5ei-28">
          <mxGeometry y="26" width="700" height="64" as="geometry" />
        </mxCell>
        <mxCell id="rgswjQ2tkkSFu81HH5ei-30" value="" style="line;strokeWidth=1;fillColor=none;align=left;verticalAlign=middle;spacingTop=-1;spacingLeft=3;spacingRight=3;rotatable=0;labelPosition=right;points=[];portConstraint=eastwest;strokeColor=inherit;" vertex="1" parent="rgswjQ2tkkSFu81HH5ei-28">
          <mxGeometry y="90" width="700" height="168" as="geometry" />
        </mxCell>
        <mxCell id="rgswjQ2tkkSFu81HH5ei-31" value="+getName() : String&lt;div&gt;+setName(val : String) : void&lt;/div&gt;&lt;div&gt;+getIncomingInterest() : double&lt;/div&gt;&lt;div&gt;+setIncomingInterest(val : double) : void&lt;/div&gt;&lt;div&gt;+getOutgoingInterest() : double&lt;/div&gt;&lt;div&gt;+setOutgoingInterest(val : double) : void&lt;/div&gt;&lt;div&gt;+PrivateBank(name : String, incomingInterest : double, outgoingInterest : double)&lt;/div&gt;&lt;div&gt;+PrivateBank(other : PrivateBank)&lt;/div&gt;&lt;div&gt;+toString() : String&lt;/div&gt;&lt;div&gt;+equals(obj : Object) : boolean&lt;/div&gt;&lt;div&gt;+createAccount(account : String) : void&lt;/div&gt;&lt;div&gt;+createAccount(account : String, transactions : List&amp;lt;Transaction&amp;gt;) : void&lt;br&gt;&lt;/div&gt;&lt;div&gt;+addTransaction(account : String, transaction : Transaction) : void&lt;/div&gt;&lt;div&gt;+removeTransaction(account : String, transaction : Transaction) : void&lt;/div&gt;&lt;div&gt;+containsTransaction(account : String, transaction : Transaction) : boolean&lt;/div&gt;&lt;div&gt;+getAccountBalance(account : String) : double&lt;/div&gt;&lt;div&gt;+getTransactions(account : String) : List&amp;lt;Transaction&amp;gt;&lt;/div&gt;&lt;div&gt;+getTransactionsSorted(account : String, asc : boolean) : List&amp;lt;Transaction&amp;gt;&lt;/div&gt;&lt;div&gt;+getTransactionsByType(account : String, positive : boolean) : List&amp;lt;Transaction&amp;gt;&lt;/div&gt;" style="text;strokeColor=none;fillColor=none;align=left;verticalAlign=top;spacingLeft=4;spacingRight=4;overflow=hidden;rotatable=0;points=[[0,0.5],[1,0.5]];portConstraint=eastwest;whiteSpace=wrap;html=1;" vertex="1" parent="rgswjQ2tkkSFu81HH5ei-28">
          <mxGeometry y="258" width="700" height="352" as="geometry" />
        </mxCell>
        <mxCell id="rgswjQ2tkkSFu81HH5ei-32" style="edgeStyle=orthogonalEdgeStyle;rounded=0;orthogonalLoop=1;jettySize=auto;html=1;exitX=0;exitY=0;exitDx=0;exitDy=0;" edge="1" parent="rgswjQ2tkkSFu81HH5ei-28" source="rgswjQ2tkkSFu81HH5ei-28" target="rgswjQ2tkkSFu81HH5ei-29">
          <mxGeometry relative="1" as="geometry" />
        </mxCell>
        <mxCell id="rgswjQ2tkkSFu81HH5ei-33" value="" style="endArrow=block;dashed=1;endFill=0;endSize=12;html=1;rounded=0;exitX=0.5;exitY=0;exitDx=0;exitDy=0;entryX=0.48;entryY=1.006;entryDx=0;entryDy=0;entryPerimeter=0;" edge="1" parent="1" source="rgswjQ2tkkSFu81HH5ei-28" target="rgswjQ2tkkSFu81HH5ei-27">
          <mxGeometry width="160" relative="1" as="geometry">
            <mxPoint x="1380" y="610" as="sourcePoint" />
            <mxPoint x="1540" y="610" as="targetPoint" />
          </mxGeometry>
        </mxCell>
        <mxCell id="rgswjQ2tkkSFu81HH5ei-34" value="PrivateBankAlt" style="swimlane;fontStyle=1;align=center;verticalAlign=top;childLayout=stackLayout;horizontal=1;startSize=26;horizontalStack=0;resizeParent=1;resizeParentMax=0;resizeLast=0;collapsible=1;marginBottom=0;whiteSpace=wrap;html=1;" vertex="1" parent="1">
          <mxGeometry x="2240" y="480" width="700" height="610" as="geometry" />
        </mxCell>
        <mxCell id="rgswjQ2tkkSFu81HH5ei-35" value="#name : String&lt;div&gt;#incomingInterest : double&lt;/div&gt;&lt;div&gt;#outgoingInterest : double&lt;/div&gt;&lt;div&gt;#accountsToTransactions : Map&amp;lt;String, List&amp;lt;Transaction&amp;gt;&amp;gt;&lt;/div&gt;&lt;div&gt;&lt;br&gt;&lt;/div&gt;" style="text;strokeColor=none;fillColor=none;align=left;verticalAlign=top;spacingLeft=4;spacingRight=4;overflow=hidden;rotatable=0;points=[[0,0.5],[1,0.5]];portConstraint=eastwest;whiteSpace=wrap;html=1;" vertex="1" parent="rgswjQ2tkkSFu81HH5ei-34">
          <mxGeometry y="26" width="700" height="64" as="geometry" />
        </mxCell>
        <mxCell id="rgswjQ2tkkSFu81HH5ei-36" value="" style="line;strokeWidth=1;fillColor=none;align=left;verticalAlign=middle;spacingTop=-1;spacingLeft=3;spacingRight=3;rotatable=0;labelPosition=right;points=[];portConstraint=eastwest;strokeColor=inherit;" vertex="1" parent="rgswjQ2tkkSFu81HH5ei-34">
          <mxGeometry y="90" width="700" height="168" as="geometry" />
        </mxCell>
        <mxCell id="rgswjQ2tkkSFu81HH5ei-37" value="+getName() : String&lt;div&gt;+setName(val : String) : void&lt;/div&gt;&lt;div&gt;+getIncomingInterest() : double&lt;/div&gt;&lt;div&gt;+setIncomingInterest(val : double) : void&lt;/div&gt;&lt;div&gt;+getOutgoingInterest() : double&lt;/div&gt;&lt;div&gt;+setOutgoingInterest(val : double) : void&lt;/div&gt;&lt;div&gt;+PrivateBank(name : String, incomingInterest : double, outgoingInterest : double)&lt;/div&gt;&lt;div&gt;+PrivateBank(other : PrivateBank)&lt;/div&gt;&lt;div&gt;+toString() : String&lt;/div&gt;&lt;div&gt;+equals(obj : Object) : boolean&lt;/div&gt;&lt;div&gt;+createAccount(account : String) : void&lt;/div&gt;&lt;div&gt;+createAccount(account : String, transactions : List&amp;lt;Transaction&amp;gt;) : void&lt;br&gt;&lt;/div&gt;&lt;div&gt;+addTransaction(account : String, transaction : Transaction) : void&lt;/div&gt;&lt;div&gt;+removeTransaction(account : String, transaction : Transaction) : void&lt;/div&gt;&lt;div&gt;+containsTransaction(account : String, transaction : Transaction) : boolean&lt;/div&gt;&lt;div&gt;+getAccountBalance(account : String) : double&lt;/div&gt;&lt;div&gt;+getTransactions(account : String) : List&amp;lt;Transaction&amp;gt;&lt;/div&gt;&lt;div&gt;+getTransactionsSorted(account : String, asc : boolean) : List&amp;lt;Transaction&amp;gt;&lt;/div&gt;&lt;div&gt;+getTransactionsByType(account : String, positive : boolean) : List&amp;lt;Transaction&amp;gt;&lt;/div&gt;" style="text;strokeColor=none;fillColor=none;align=left;verticalAlign=top;spacingLeft=4;spacingRight=4;overflow=hidden;rotatable=0;points=[[0,0.5],[1,0.5]];portConstraint=eastwest;whiteSpace=wrap;html=1;" vertex="1" parent="rgswjQ2tkkSFu81HH5ei-34">
          <mxGeometry y="258" width="700" height="352" as="geometry" />
        </mxCell>
        <mxCell id="rgswjQ2tkkSFu81HH5ei-38" style="edgeStyle=orthogonalEdgeStyle;rounded=0;orthogonalLoop=1;jettySize=auto;html=1;exitX=0;exitY=0;exitDx=0;exitDy=0;" edge="1" parent="rgswjQ2tkkSFu81HH5ei-34" source="rgswjQ2tkkSFu81HH5ei-34" target="rgswjQ2tkkSFu81HH5ei-35">
          <mxGeometry relative="1" as="geometry" />
        </mxCell>
        <mxCell id="rgswjQ2tkkSFu81HH5ei-39" value="" style="endArrow=block;dashed=1;endFill=0;endSize=12;html=1;rounded=0;exitX=0.5;exitY=0;exitDx=0;exitDy=0;entryX=0.508;entryY=0.983;entryDx=0;entryDy=0;entryPerimeter=0;" edge="1" parent="1" source="rgswjQ2tkkSFu81HH5ei-34" target="rgswjQ2tkkSFu81HH5ei-27">
          <mxGeometry width="160" relative="1" as="geometry">
            <mxPoint x="1940" y="670" as="sourcePoint" />
            <mxPoint x="2010" y="330" as="targetPoint" />
          </mxGeometry>
        </mxCell>
        <mxCell id="rgswjQ2tkkSFu81HH5ei-40" value="" style="endArrow=diamondThin;endFill=0;endSize=24;html=1;rounded=0;exitX=0.996;exitY=0.25;exitDx=0;exitDy=0;entryX=0.5;entryY=0;entryDx=0;entryDy=0;exitPerimeter=0;" edge="1" parent="1" source="rgswjQ2tkkSFu81HH5ei-12" target="rgswjQ2tkkSFu81HH5ei-28">
          <mxGeometry width="160" relative="1" as="geometry">
            <mxPoint x="620" y="260" as="sourcePoint" />
            <mxPoint x="1320" y="235" as="targetPoint" />
          </mxGeometry>
        </mxCell>
        <mxCell id="rgswjQ2tkkSFu81HH5ei-45" value="IncomingTransfer" style="swimlane;fontStyle=1;align=center;verticalAlign=top;childLayout=stackLayout;horizontal=1;startSize=26;horizontalStack=0;resizeParent=1;resizeParentMax=0;resizeLast=0;collapsible=1;marginBottom=0;whiteSpace=wrap;html=1;" vertex="1" parent="1">
          <mxGeometry x="20" y="910" width="370" height="180" as="geometry" />
        </mxCell>
        <mxCell id="rgswjQ2tkkSFu81HH5ei-47" value="" style="line;strokeWidth=1;fillColor=none;align=left;verticalAlign=middle;spacingTop=-1;spacingLeft=3;spacingRight=3;rotatable=0;labelPosition=right;points=[];portConstraint=eastwest;strokeColor=inherit;" vertex="1" parent="rgswjQ2tkkSFu81HH5ei-45">
          <mxGeometry y="26" width="370" height="54" as="geometry" />
        </mxCell>
        <mxCell id="rgswjQ2tkkSFu81HH5ei-48" value="+IncomingTransfer(date : String, amount : double, description : String)&amp;nbsp;&lt;div&gt;+IncomingTransfer(date : String, amount : double, description : String, sender : String, recipient : String)&lt;/div&gt;&lt;div&gt;+IncomingTransfer(other : Transfer)&lt;/div&gt;" style="text;strokeColor=none;fillColor=none;align=left;verticalAlign=top;spacingLeft=4;spacingRight=4;overflow=hidden;rotatable=0;points=[[0,0.5],[1,0.5]];portConstraint=eastwest;whiteSpace=wrap;html=1;" vertex="1" parent="rgswjQ2tkkSFu81HH5ei-45">
          <mxGeometry y="80" width="370" height="100" as="geometry" />
        </mxCell>
        <mxCell id="rgswjQ2tkkSFu81HH5ei-49" value="OutgoingTransfer" style="swimlane;fontStyle=1;align=center;verticalAlign=top;childLayout=stackLayout;horizontal=1;startSize=26;horizontalStack=0;resizeParent=1;resizeParentMax=0;resizeLast=0;collapsible=1;marginBottom=0;whiteSpace=wrap;html=1;" vertex="1" parent="1">
          <mxGeometry x="460" y="910" width="370" height="180" as="geometry" />
        </mxCell>
        <mxCell id="rgswjQ2tkkSFu81HH5ei-50" value="" style="line;strokeWidth=1;fillColor=none;align=left;verticalAlign=middle;spacingTop=-1;spacingLeft=3;spacingRight=3;rotatable=0;labelPosition=right;points=[];portConstraint=eastwest;strokeColor=inherit;" vertex="1" parent="rgswjQ2tkkSFu81HH5ei-49">
          <mxGeometry y="26" width="370" height="54" as="geometry" />
        </mxCell>
        <mxCell id="rgswjQ2tkkSFu81HH5ei-51" value="+OutgoingTransfer(date : String, amount : double, description : String)&amp;nbsp;&lt;div&gt;+OutgoingTransfer(date : String, amount : double, description : String, sender : String, recipient : String)&lt;/div&gt;&lt;div&gt;+OutgoingTransfer(other : Transfer)&lt;/div&gt;&lt;div&gt;+calculate() : double&lt;/div&gt;" style="text;strokeColor=none;fillColor=none;align=left;verticalAlign=top;spacingLeft=4;spacingRight=4;overflow=hidden;rotatable=0;points=[[0,0.5],[1,0.5]];portConstraint=eastwest;whiteSpace=wrap;html=1;" vertex="1" parent="rgswjQ2tkkSFu81HH5ei-49">
          <mxGeometry y="80" width="370" height="100" as="geometry" />
        </mxCell>
        <mxCell id="rgswjQ2tkkSFu81HH5ei-53" value="Extends" style="endArrow=block;endSize=16;endFill=0;html=1;rounded=0;exitX=0.5;exitY=0;exitDx=0;exitDy=0;entryX=0.472;entryY=1.029;entryDx=0;entryDy=0;entryPerimeter=0;" edge="1" parent="1" source="rgswjQ2tkkSFu81HH5ei-45" target="rgswjQ2tkkSFu81HH5ei-18">
          <mxGeometry width="160" relative="1" as="geometry">
            <mxPoint x="580" y="770" as="sourcePoint" />
            <mxPoint x="740" y="770" as="targetPoint" />
          </mxGeometry>
        </mxCell>
        <mxCell id="rgswjQ2tkkSFu81HH5ei-54" value="Extends" style="endArrow=block;endSize=16;endFill=0;html=1;rounded=0;exitX=0.5;exitY=0;exitDx=0;exitDy=0;entryX=0.5;entryY=1.017;entryDx=0;entryDy=0;entryPerimeter=0;" edge="1" parent="1" source="rgswjQ2tkkSFu81HH5ei-49" target="rgswjQ2tkkSFu81HH5ei-18">
          <mxGeometry width="160" relative="1" as="geometry">
            <mxPoint x="580" y="770" as="sourcePoint" />
            <mxPoint x="740" y="770" as="targetPoint" />
          </mxGeometry>
        </mxCell>
      </root>
    </mxGraphModel>
  </diagram>
</mxfile>
